<?xml version="1.0" standalone="no"?><!DOCTYPE svg PUBLIC "-//W3C//DTD SVG 1.1//EN" "http://www.w3.org/Graphics/SVG/1.1/DTD/svg11.dtd"><svg t="1610435746816" class="icon" viewBox="0 0 1025 1024" version="1.1" xmlns="http://www.w3.org/2000/svg" p-id="1161" xmlns:xlink="http://www.w3.org/1999/xlink" width="200.1953125" height="200"><defs><style type="text/css"></style></defs><path d="M531.318382 6.710087h69.134234v94.551232c123.628276 1.01668 247.053217-1.220016 370.478157 1.016679 12.403495-1.423352 24.603654 2.846704 33.347101 11.590151 8.743447 8.743447 12.810167 21.146942 11.183479 33.550437 2.03336 232.819698 0 466.249404 1.220016 698.865767-1.220016 23.993646 2.236696 50.427323-11.183479 71.777601-16.876886 11.996823-38.633836 10.776807-58.357427 11.996823H600.452616V1022.779984h-71.777602c-176.292295-32.330421-352.381255-62.627482-528.67355-94.144559V101.464654C177.107103 69.744241 354.212743 38.837172 531.318382 6.710087z m0 0" fill="#3DA54D" p-id="1162"></path><path d="M600.452616 136.641779h381.051628v756.613185H600.452616v-94.551231h300.327244v-47.783955H600.452616v-58.560763h300.327244v-47.987291H600.452616v-58.560763h300.327244v-47.783955H600.452616v-59.780779h300.327244v-45.953932H600.452616v-59.780778h300.327244v-46.767276H600.452616v-59.17077h300.327244v-47.173948H600.452616zM446.93395 749.089754l-92.314535-6.10008-69.540906-176.292295-75.844321 163.888801-88.247815-6.10008 110.818109-200.895949-98.414614-217.162828 88.044479-6.100079 57.340747 163.8888h12.403495l63.440826-176.292295 92.314535-6.100079-116.918189 229.566322z" fill="#FFFFFF" p-id="1163"></path><path d="M683.007024 198.049245h70.150913v626.681494h-70.150913z" fill="#FFFFFF" p-id="1164"></path></svg>