<?xml version="1.0" standalone="no"?><!DOCTYPE svg PUBLIC "-//W3C//DTD SVG 1.1//EN" "http://www.w3.org/Graphics/SVG/1.1/DTD/svg11.dtd"><svg t="1610534702387" class="icon" viewBox="0 0 1024 1024" version="1.1" xmlns="http://www.w3.org/2000/svg" p-id="4843" xmlns:xlink="http://www.w3.org/1999/xlink" width="200" height="200"><defs><style type="text/css"></style></defs><path d="M271.69292 409.600307h6.041597c12.083194 0 21.132789-6.169597 30.195185-15.411192 9.049595-30.847985 42.099179-107.583946 87.385556-107.583946 18.111991 0 36.057582 6.169597 54.182373 12.326394 30.182385 9.254395 60.21117 18.508791 102.310349 12.339193 45.119977-9.254395 57.190371-52.249574 69.273565-89.254355 15.103992-52.249574 27.174386-83.071958 84.364758-83.071958A24.063988 24.063988 0 0 0 729.599891 114.253255C729.599891 101.939661 717.529497 89.600467 705.446303 89.600467c-93.260753 0-114.393543 70.745565-129.484735 116.825542-12.083194 36.838382-18.111991 52.249574-33.049583 55.334372-30.182385 6.169597-54.169573 0-81.34396-9.241595-21.132789-9.254395-45.119977-15.423992-69.273565-15.423993-90.406355-3.071998-132.505534 135.334332-135.526332 141.50393-3.020798 12.671994 3.020798 27.916786 14.924792 31.001584z m81.356759-208.998295c12.070394 0 27.174386-6.156797 36.057582-15.411193a51.494374 51.494374 0 0 0 15.103993-36.838381c0-12.326394-6.041597-27.750386-18.124791-36.825582-9.049595-9.254395-21.119989-15.411192-36.057582-15.411192-12.083194 0-27.174386 6.156797-36.057582 15.411192a51.494374 51.494374 0 0 0-15.103992 36.825582c0 15.423992 6.041597 27.763186 18.111991 36.838381a48.831976 48.831976 0 0 0 36.070381 15.411193z" fill="#d81e06" p-id="4844"></path><path d="M827.366242 0.000512H206.412953C161.241775 0.000512 128.000192 33.126895 128.000192 78.541273v422.642988C128.000192 546.419439 158.220977 588.800218 206.412953 588.800218H450.560031c24.191988-3.033598 21.158389-51.289574-9.062396-51.289575l-6.041597 3.020799-226.022287-3.020799c-21.158389 0-33.075183-18.175991-33.075183-39.19358V81.562071c0-21.183989 12.095994-36.147182 30.220785-36.147182h620.953289c21.158389 3.020798 33.075183 18.163191 33.075184 36.147182V256.640384C863.628624 289.792367 908.799802 283.90437 908.799802 259.673982V81.562071A81.151959 81.151959 0 0 0 827.366242 0.000512z" fill="#d81e06" p-id="4845"></path><path d="M725.657493 294.784365c-57.958371-3.071998-106.751947 12.223994-149.580725 51.801574C533.414389 383.10432 512 432.000296 512 489.933067 512 602.701011 600.563156 691.200166 710.361501 691.200166c109.811145 0 195.302302-88.486356 198.361501-192.102304 3.071998-118.886341-88.383956-198.207901-183.065509-204.313497z m-18.355191 344.614227c-76.313562 0-146.521527-64.038368-146.521526-146.406326-3.059198-79.32156 67.148766-152.524724 155.519922-146.406327 39.61598 3.059198 70.207965 18.342391 97.574351 45.695977 27.545586 27.507186 42.662379 64.025568 42.662379 103.590348 3.404798 79.48796-63.743968 146.585527-149.235126 143.526328z" fill="#d81e06" p-id="4846"></path><path d="M691.19991 390.400317m19.199991 0l0 0q19.19999 0 19.19999 19.19999l0 102.399949q0 19.19999-19.19999 19.19999l0 0q-19.19999 0-19.199991-19.19999l0-102.399949q0-19.19999 19.199991-19.19999Z" fill="#d81e06" p-id="4847"></path><path d="M710.399901 576.000224m-19.199991 0a19.19999 19.19999 0 1 0 38.399981 0 19.19999 19.19999 0 1 0-38.399981 0Z" fill="#d81e06" p-id="4848"></path><path d="M164.556974 847.488088v8.985596c-4.377598 99.99355-8.063996 134.092733-16.358392 144.691127-4.607998 6.220797-8.985596 8.063996-15.667192 8.755196-5.990397 0.9216-15.436792 0.9216-25.113588 0.2304-0.4608-5.299197-2.303999-12.671994-5.068797-17.510391 9.676795 0.9216 18.431991 1.151999 22.579189 1.151999 3.686398 0 5.759997-0.9216 8.063996-3.916798 6.451197-7.372796 10.598395-39.16798 14.284792-125.567937H114.790599c-2.764799 57.599971-11.289594 114.969543-40.08958 150.681525-3.225598-3.916798-8.985596-8.985596-13.593594-11.519995 26.956787-32.025584 34.559983-85.478357 36.863982-139.16153H66.176223V847.488088h32.255984c0.4608-14.054393 0.4608-28.108786 0.4608-41.241579h17.049591c0 13.363193-0.2304 27.187186-0.6912 41.241579h49.305576z m34.099183 131.788734h44.697577V850.944087H198.656157v128.332735z m-16.819192-144.921527h79.027161V1011.072006h-17.510392v-15.206392H198.656157v16.819192h-16.819192V834.355295z m309.427045 5.299197l-12.671993 8.985596c-5.299197-8.524796-17.510391-21.196789-27.878386-30.182385l12.211194-7.833596c10.367995 8.063996 23.039988 20.50559 28.339185 29.030385z m-75.110362 126.719937v14.284793c-13.823993 1.612799-27.647986 2.995199-41.471979 4.377597v30.182385h-16.127992v-28.799985c-22.348789 2.303999-43.084778 4.377598-59.67357 6.220797l-1.8432-15.897592c16.358392-1.151999 37.785581-2.995199 61.51677-5.068798V948.864038h-29.951985c-9.446395 0-16.358392 1.382399-18.431991 3.225598-0.9216-3.455998-3.225598-11.519994-5.299197-15.667192 3.455998-0.6912 6.911997-5.299197 10.598394-11.519994 1.843199-2.764799 4.838398-8.985596 8.755196-16.588792h-26.035187v-14.054393h32.255984c3.225598-7.142396 6.220797-14.745593 8.524796-22.348789l16.819191 4.607998c-2.303999 5.990397-4.838398 11.980794-7.603196 17.740791h67.737566v14.054393H341.504085c-4.838398 9.215995-9.907195 18.201591-14.745592 25.804787h31.795184V915.456054h16.127992v18.662391h36.403181v14.745593h-36.403181v21.427189a2521.726739 2521.726739 0 0 0 41.471979-3.916798zM474.214419 883.20007l15.436792 4.377598c-8.063996 28.339186-19.81439 55.526372-34.790382 79.027161 6.451197 19.81439 14.975993 30.873585 24.883187 30.873584 5.759997 0 8.063996-9.907195 9.446395-36.863981 3.455998 3.916798 9.215995 7.142396 13.363194 8.755195-2.764799 34.329583-8.294396 44.697578-24.191988 44.697578-14.975993 0-26.265587-11.519994-34.790383-31.103984a199.4495 199.4495 0 0 1-33.177583 33.638383 64.473568 64.473568 0 0 0-11.980794-11.750394c14.745593-10.367995 27.647986-24.191988 38.70718-40.08958-6.911997-24.652788-11.289594-56.908772-13.363193-93.311954h-129.023935v-13.823993h55.526372v-19.58399h-43.775978v-13.823993h43.775978v-18.431991h16.358392v18.431991h40.550379v13.823993h-40.550379v19.58399h56.447971a924.671538 924.671538 0 0 1-1.382399-51.379174h16.819192a929.535535 929.535535 0 0 0 0.691199 51.379174h60.59517v13.823993h-59.67357c1.612799 28.569586 4.838398 53.683173 8.985595 73.958363A277.017461 277.017461 0 0 0 474.214419 883.20007z m255.283072 42.393579h-87.551956c15.897592 38.707181 46.079977 64.281568 92.851154 74.649563-3.916798 3.686398-8.755196 10.828795-11.519995 15.667192-47.692776-12.441594-77.875161-40.31998-95.615952-83.174358-10.598395 32.947184-35.942382 63.129568-94.694352 83.404758-1.612799-4.147198-6.911997-11.289594-10.598395-14.745593 55.526372-18.662391 79.02716-46.079977 88.703955-75.801562h-85.939157V908.544058h89.855956c1.843199-10.598395 2.303999-21.196789 2.303998-31.795184v-13.823993h-51.609574c-6.911997 13.823993-14.515193 26.265587-22.579189 36.172781-3.686398-2.764799-11.980794-7.142396-16.588791-8.985595 17.740791-19.58399 32.025584-49.996775 40.31998-81.10076l17.971191 3.916799c-3.225598 11.289594-6.911997 22.348789-11.519995 32.947183h44.006378v-40.08958h17.510392v40.08958h75.110362v17.049592h-75.110362v13.823993c0 10.598395-0.4608 21.196789-1.843199 31.795184h96.537551v17.049591z m48.383976-93.311953v123.724738h-14.284793V816.844904h81.33116v138.47033h-14.975993v-123.033538h-52.070374z m33.868783 15.667192v61.747169c0 34.099183-5.299197 78.566361-49.075175 106.214347a69.734365 69.734365 0 0 0-10.598395-11.519994c41.702379-23.961588 44.697578-65.203167 44.697578-94.694353v-61.747169h14.975992z m-2.534399 120.72954l11.980794-7.142397c10.137595 12.671994 23.039988 29.721585 29.260786 40.08958l-12.671994 8.755196c-5.990397-10.598395-18.662391-28.569586-28.569586-41.702379z m119.577541-107.135947h-43.084779a191.487904 191.487904 0 0 1-8.063996 20.04479c6.681597 24.191988 15.897592 46.771177 28.108786 66.355167 11.289594-22.348789 19.12319-50.457575 23.039989-86.399957z m30.873584 0h-16.127992c-4.607998 42.163179-14.284793 74.879963-28.339186 100.22395 13.593593 17.971191 29.721585 32.255984 48.383976 41.241579-3.455998 2.995199-8.063996 8.985596-10.828794 12.671994-17.740791-9.446395-33.177583-23.270388-46.079977-40.08958a129.279935 129.279935 0 0 1-44.927978 40.55038c-1.843199-3.686398-7.142396-9.907195-10.367995-12.441594 18.201591-9.446395 33.407983-22.809589 45.849577-41.241579-11.980794-17.971191-21.427189-39.16798-28.799985-61.977569-2.995199 4.838398-5.990397 9.676795-8.755196 13.823993-2.073599-3.225598-7.372796-10.598395-10.598395-13.823993 16.358392-22.579189 28.339186-57.369571 35.251183-92.851154l15.667192 3.455998a427.327786 427.327786 0 0 1-8.985596 34.790383h68.659166v15.667192z" fill="#d81e06" p-id="4849"></path></svg>