<?xml version="1.0" standalone="no"?><!DOCTYPE svg PUBLIC "-//W3C//DTD SVG 1.1//EN" "http://www.w3.org/Graphics/SVG/1.1/DTD/svg11.dtd"><svg t="1610435863760" class="icon" viewBox="0 0 1097 1024" version="1.1" xmlns="http://www.w3.org/2000/svg" p-id="5762" xmlns:xlink="http://www.w3.org/1999/xlink" width="214.2578125" height="200"><defs><style type="text/css"></style></defs><path d="M14.628571 0m73.142858 0l877.714285 0q73.142857 0 73.142857 73.142857l0 877.714286q0 73.142857-73.142857 73.142857l-877.714285 0q-73.142857 0-73.142858-73.142857l0-877.714286q0-73.142857 73.142858-73.142857Z" fill="#04CBA3" p-id="5763"></path><path d="M584.045714 635.611429C539.721143 522.020571 471.844571 365.275429 434.688 365.714286c-58.294857 0.585143-197.12 383.853714-197.12 383.853714-11.044571 29.110857 4.900571 52.662857 35.328 52.736l317.805714 1.097143a53.101714 53.101714 0 0 0 9.801143-0.877714l256.950857 0.877714c30.573714 0 42.934857-21.796571 28.013715-48.786286 0 0-131.437714-247.442286-184.32-246.637714-27.062857 0.438857-75.922286 64.877714-117.101715 127.634286zM692.077714 407.990857c51.053714 0 92.379429-42.203429 92.379429-94.281143S743.131429 219.428571 692.077714 219.428571C641.097143 219.428571 599.771429 261.632 599.771429 313.709714s41.325714 94.281143 92.306285 94.281143z" fill="#FFFFFF" p-id="5764"></path></svg>