<?xml version="1.0" standalone="no"?><!DOCTYPE svg PUBLIC "-//W3C//DTD SVG 1.1//EN" "http://www.w3.org/Graphics/SVG/1.1/DTD/svg11.dtd"><svg t="1609404712593" class="icon" viewBox="0 0 1024 1024" version="1.1" xmlns="http://www.w3.org/2000/svg" p-id="1141" xmlns:xlink="http://www.w3.org/1999/xlink" width="200" height="200"><defs><style type="text/css"></style></defs><path d="M773.7 459.2c-19.6 32-51 55.8-89 67-10.1 3-17.8 4.2-24.9 4.2-16.6 0-29.7-13-29.7-29.7 0-16.6 13.1-29.7 29.7-29.7 1.2 0 3.5 0 6.5-1.2 25.5-7.1 45.7-21.9 57-41.5 7.7-12.5 11.3-26.1 11.3-40.3 0-46.9-43.3-85.4-96.2-85.4-18.3 0-36.3 4.7-52.2 13.6-27.9 16-44.5 42.7-44.5 71.8v248.6c0 50.4-27.9 96.7-74.2 122.8-24.8 14.1-52.8 21.5-81.3 21.4-86 0-156.1-64.7-156.1-144.8 0-24.9 7.1-49.3 20.2-71.2 19.6-32 51-55.8 89-67 10.7-3 17.8-4.2 24.9-4.2 16.6 0 29.7 13.1 29.7 29.7s-13 29.7-29.7 29.7c-1.2 0-3.6 0-6.5 1.2-25.5 7.7-45.7 22.6-57 41.5-7.5 12.1-11.4 26.1-11.3 40.4 0 46.9 43.3 85.4 96.7 85.4 18.4 0 36.2-4.8 52.2-13.7 27.9-16 44.5-42.7 44.5-71.8V388c0-50.4 27.9-96.7 74.2-122.8 24.3-14.9 52.2-22 80.7-22 86 0 156.1 64.7 156.1 144.8 0.1 24.9-7 49.2-20.1 71.2M512 0C229.2 0 0 229.2 0 512s229.2 512 512 512 512-229.2 512-512S794.8 0 512 0" p-id="1142"></path></svg>