<?xml version="1.0" standalone="no"?><!DOCTYPE svg PUBLIC "-//W3C//DTD SVG 1.1//EN" "http://www.w3.org/Graphics/SVG/1.1/DTD/svg11.dtd"><svg t="1610435811085" class="icon" viewBox="0 0 1024 1024" version="1.1" xmlns="http://www.w3.org/2000/svg" p-id="3555" xmlns:xlink="http://www.w3.org/1999/xlink" width="200" height="200"><defs><style type="text/css"></style></defs><path d="M208.8 640.5c-17.2 6.6-32 18-42.4 32.7l3.5-1.1c16.5-5.7 29.5-16.9 38.9-31.6z m385.3-446.1v56.9h278.4v56.9H594.1V365h278.4v56.9H594.1v56.9h278.4v56.9l-278.4 4.1v52.8h278.4v56.9H594.1v56.9h278.4V763H594.1v56.4h335.7V194.7l-335.7-0.3zM96.2 835.7l474.7 88.2V90.2L96.2 178.3v657.4z m149.1-249.4c25.9-45.1 45.9-91.4 62.4-139.9-14.1-27.1-44.7-93.7-23.6-127.5 7.1-12.4 21.2-19.2 36.5-18 12 0.1 23.3 5.5 30.6 14.6 15.3 20.3 14.1 63.2-5.9 126.4 18.8 33.8 43.5 64.3 73 90.2 24.7-4.5 49.5-7.9 74.2-7.9 55.3 1.2 63.5 26 62.4 40.6-0.1 38.3-38.9 38.3-58.9 38.3-32.1-2.1-62.6-13.9-87.1-33.9-48.3 10.2-94.2 24.9-140.1 42.9-36.5 62.1-70.7 93.7-100.1 93.7-5.9 0-13-1.1-17.6-4.5-12.3-5.5-20.2-17.4-20-30.5 0-10 2.4-38.2 114.2-84.5zM323 334.7h-3.5c-1.2 0-3.5 0-4.7 1.1-4.7 19.2-1.2 39.5 7.1 57.5 6.8-18.9 7.2-39.4 1.1-58.6z m-27.1 242.6c26.2-9.1 52.9-16.6 80.1-22.6l-1.2-1.1h3.5c-17.6-16.8-33.4-35.3-47.1-55.3l-1.2 2.2-1.2-1.1c-10.6 26.1-22.4 51.7-35.3 76.7l2.3-1.1v2.3z m223.8-10.1c0-3.4-4.7-9-28.3-9-10.6 0-20 0-30.6 2.3 11.8 5.6 23.6 7.9 35.3 9 8.3 1.1 16.5-0.1 23.6-2.3z" fill="#E94F4F" p-id="3556"></path></svg>