<?xml version="1.0" standalone="no"?><!DOCTYPE svg PUBLIC "-//W3C//DTD SVG 1.1//EN" "http://www.w3.org/Graphics/SVG/1.1/DTD/svg11.dtd"><svg t="1610435783772" class="icon" viewBox="0 0 1024 1024" version="1.1" xmlns="http://www.w3.org/2000/svg" p-id="2769" xmlns:xlink="http://www.w3.org/1999/xlink" width="200" height="200"><defs><style type="text/css"></style></defs><path d="M622.592 892.416v-89.6h290.816v-42.752H622.592V691.2h290.816v-44.032H622.592v-108.032a147.712 147.712 0 0 0 104.704 43.52 150.016 150.016 0 0 0 149.248-151.04h-149.248V281.6a147.712 147.712 0 0 0-104.704 43.52V131.584H1024v760.832zM748.8 256v151.04h149.248a150.016 150.016 0 0 0-149.248-151.04zM0 110.592L576 0v1024L0 913.408z m153.6 626.432h88.064v-153.6s185.088 14.08 200.192-156.672c0 0 7.424-119.296-104.96-138.496a1409.536 1409.536 0 0 0-183.808 0zM340.992 435.2c3.584 76.8-106.24 76.8-106.24 76.8v-153.6c74.496 6.656 103.424 15.36 106.24 76.8z" fill="#FF6A4D" p-id="2770"></path></svg>