<?xml version="1.0" standalone="no"?><!DOCTYPE svg PUBLIC "-//W3C//DTD SVG 1.1//EN" "http://www.w3.org/Graphics/SVG/1.1/DTD/svg11.dtd"><svg t="1610439776087" class="icon" viewBox="0 0 1024 1024" version="1.1" xmlns="http://www.w3.org/2000/svg" p-id="5484" xmlns:xlink="http://www.w3.org/1999/xlink" width="200" height="200"><defs><style type="text/css"></style></defs><path d="M678.058039 0.70966H150.12454C135.433105 0.70966 94.552592 4.542208 94.552592 27.537497v968.676529a105.714451 105.714451 0 0 0 55.571948 26.508458h729.142274c14.691434 0 13.733297-21.398393 13.733297-27.785974v-766.509618c0-12.77516 4.790685-16.927087 1.916274-19.801498L686.361893 0.70966c-3.19379-1.596895-3.832548 0-8.303854 0z" fill="#E9E9E0" p-id="5485"></path><path d="M66.127861 576.86939m61.959527 0l770.342166 0q61.959527 0 61.959528 61.959527l0 227.397853q0 61.959527-61.959528 61.959528l-770.342166 0q-61.959527 0-61.959527-61.959528l0-227.397853q0-61.959527 61.959527-61.959527Z" fill="#0386F2" p-id="5486"></path><path d="M283.944344 803.628485v75.692825H237.634388V661.824206h75.054066q81.122268 0 81.122268 68.666486a65.792076 65.792076 0 0 1-24.592183 53.655673 89.745501 89.745501 0 0 1-61.32077 19.162741z m0-105.714452V767.219278h20.120877q40.880513 0 40.880513-35.45107t-40.241755-33.854175zM416.806011 824.707499a91.023017 91.023017 0 0 0 59.723874 21.717773 50.461883 50.461883 0 0 0 28.424732-6.38758 19.482119 19.482119 0 0 0 9.58137-16.607709 23.953426 23.953426 0 0 0-7.665096-16.607708 142.762416 142.762416 0 0 0-39.922376-21.398394q-51.100641-21.717773-51.100641-63.875801a54.933189 54.933189 0 0 1 22.995288-46.948714 101.881903 101.881903 0 0 1 61.001391-16.607709 150.427513 150.427513 0 0 1 53.336294 8.303855v43.435545a88.787364 88.787364 0 0 0-51.100641-15.010814 52.378157 52.378157 0 0 0-27.466595 6.38758 19.16274 19.16274 0 0 0-10.220128 16.927088 21.717773 21.717773 0 0 0 7.026338 15.649571 130.945393 130.945393 0 0 0 34.492933 19.162741 113.060169 113.060169 0 0 1 44.713061 29.382868 57.8076 57.8076 0 0 1 12.136402 36.728586 55.571947 55.571947 0 0 1-21.079014 47.587472 104.436935 104.436935 0 0 1-63.875802 16.28833 135.416699 135.416699 0 0 1-61.320769-12.136403zM599.490803 879.32131V661.824206h75.054067q115.93458 0 115.93458 106.03383a105.714451 105.714451 0 0 1-31.937901 80.802889 116.892717 116.892717 0 0 1-83.6773 31.937901z m46.309956-179.491003v141.484901h25.230942a68.347108 68.347108 0 0 0 51.739399-19.801499 73.776551 73.776551 0 0 0 18.843361-54.294431 65.472697 65.472697 0 0 0-19.801498-50.461883 72.179656 72.179656 0 0 0-51.100641-18.204604z" fill="#FFFFFF" p-id="5487"></path><path d="M466.309757 354.900979v134.777942h-82.399784V103.230322h132.861667q144.039932 0 144.359312 122.322159a117.212096 117.212096 0 0 1-43.435545 95.813703A159.689504 159.689504 0 0 1 509.745302 354.900979z m0-187.794856v124.877192h35.770449q72.499035 0 72.499035-63.875802t-71.860277-61.00139z" fill="#0386F2" p-id="5488"></path></svg>