<?xml version="1.0" standalone="no"?><!DOCTYPE svg PUBLIC "-//W3C//DTD SVG 1.1//EN" "http://www.w3.org/Graphics/SVG/1.1/DTD/svg11.dtd"><svg t="1610435834222" class="icon" viewBox="0 0 1024 1024" version="1.1" xmlns="http://www.w3.org/2000/svg" p-id="4362" xmlns:xlink="http://www.w3.org/1999/xlink" width="200" height="200"><defs><style type="text/css"></style></defs><path d="M725.783 21.917H131.667c-18.833 0-37.684 18.842-37.684 37.7v906.517c0 18.833 18.85 37.699 37.684 37.699h772.65c18.85 0 37.684-18.866 37.684-37.699V235.658L725.783 21.917z" fill="#E8E8DF" p-id="4363"></path><path d="M728.267 22.825v176.05c0 18.85 18.85 37.7 37.684 37.7H942L728.267 22.825z m0 0" fill="#FFFFFF" opacity=".6" p-id="4364"></path><path d="M913.383 1003.833h-790.75c-15.95 0-28.883-12.933-28.883-28.866V668.4h848.483v306.566c0 15.934-12.917 28.867-28.85 28.867z m0 0" fill="#94A4A4" p-id="4365"></path><path d="M409.55 745.8v22.134h-59.367v176.7H317.55v-176.7h-59.333V745.8H409.55z m129.766 102.233l50.434 96.601h-37.467l-31.617-75h-2.684l-33.982 75h-37.483l50.466-96.601-53.7-102.25h36.967l35.066 80.95h2.7l38.033-80.95H593l-53.684 102.25zM777.783 745.8v22.134h-59.35v176.7h-32.65v-176.7h-59.334V745.8h151.334z m0 0" fill="#FFFFFF" p-id="4366"></path><path d="M347.283 246.025H239.466c-9.933 0-17.983-8.05-17.983-17.967 0-9.917 8.05-17.975 17.983-17.975h107.817c9.933 0 17.967 8.058 17.967 17.975 0 9.917-8.034 17.967-17.967 17.967z m53.9 89.842H239.466c-9.933 0-17.983-8.033-17.983-17.967 0-9.917 8.05-17.966 17.983-17.966h161.717a17.97 17.97 0 0 1 15.567 9 17.934 17.934 0 0 1 0 17.966 17.939 17.939 0 0 1-15.567 8.967z m71.9 0c-4.667 0-9.367-1.967-12.767-5.2-3.267-3.4-5.233-7.9-5.233-12.767 0-4.833 1.967-9.333 5.4-12.733 6.467-6.667 18.7-6.667 25.333 0 3.25 3.4 5.233 8.067 5.233 12.733 0 4.667-1.983 9.367-5.233 12.767-3.399 3.233-8.083 5.2-12.733 5.2z m215.634 0H544.949c-9.933 0-17.967-8.033-17.967-17.967 0-9.917 8.034-17.966 17.967-17.966h143.768a17.968 17.968 0 0 1 15.566 9 18.016 18.016 0 0 1 0 17.966c-3.2 5.567-9.15 8.967-15.566 8.967zM239.466 605.434c-4.683 0-9.383-1.967-12.767-5.2-3.25-3.434-5.217-8.1-5.217-12.767 0-4.684 1.967-9.333 5.217-12.767 6.65-6.634 18.867-6.634 25.517 0.2 3.233 3.233 5.217 7.883 5.217 12.566 0 4.667-1.983 9.333-5.217 12.767-3.433 3.234-8.083 5.201-12.75 5.201z m215.617 0h-143.75a18.027 18.027 0 0 1-15.566-8.967 17.992 17.992 0 0 1 0-18 18.028 18.028 0 0 1 15.566-8.967h143.75a17.988 17.988 0 0 1 15.567 8.967 17.915 17.915 0 0 1 0 18 17.988 17.988 0 0 1-15.567 8.967z m341.45-269.567h-35.95c-9.899 0-17.967-8.033-17.967-17.967 0-9.917 8.067-17.966 17.967-17.966h35.95c6.417 0 12.35 3.433 15.566 9a17.929 17.929 0 0 1 0 17.966 17.955 17.955 0 0 1-15.566 8.967z m-161.717 89.866h-395.35c-9.933 0-17.983-8.05-17.983-17.967 0-9.933 8.05-17.967 17.983-17.967h395.35c9.9 0 17.967 8.034 17.967 17.967 0 9.918-8.066 17.967-17.967 17.967z m161.717 0H688.717c-9.934 0-17.967-8.05-17.967-17.967 0-9.933 8.033-17.967 17.967-17.967h107.816c9.934 0 17.983 8.034 17.983 17.967 0.001 9.918-8.049 17.967-17.983 17.967z m-485.2 89.867h-71.867c-9.933 0-17.983-8.066-17.983-17.966 0-9.934 8.05-18 17.983-18h71.867c9.934 0 17.983 8.067 17.983 18 0 9.899-8.049 17.966-17.983 17.966z m251.583 0h-179.7c-9.917 0-17.966-8.066-17.966-17.966 0-9.934 8.05-18 17.966-18h179.7c9.934 0 17.984 8.067 17.984 18 0 9.899-8.05 17.966-17.984 17.966z m233.617 0H634.816c-9.95 0-17.983-8.066-17.983-17.966 0-9.934 8.033-18 17.983-18h161.717c9.934 0 17.983 8.067 17.983 18 0.001 9.899-8.049 17.966-17.983 17.966z m0 0" fill="#C8BCB7" p-id="4367"></path></svg>